<?xml version="1.0" encoding="UTF-8" standalone="no"?>
<!DOCTYPE svg PUBLIC "-//W3C//DTD SVG 1.1//EN"
 "http://www.w3.org/Graphics/SVG/1.1/DTD/svg11.dtd">
<!-- Generated by graphviz version 14.1.4 (20260321.0153)
 -->
<!-- Title: ChainTopology Pages: 1 -->
<svg width="1526pt" height="1060pt"
 viewBox="0.00 0.00 1526.00 1060.00" xmlns="http://www.w3.org/2000/svg" xmlns:xlink="http://www.w3.org/1999/xlink">
<g id="graph0" class="graph" transform="scale(1 1) rotate(0) translate(4 1055.85)">
<title>ChainTopology</title>
<polygon fill="white" stroke="none" points="-4,4 -4,-1055.85 1521.87,-1055.85 1521.87,4 -4,4"/>
<text xml:space="preserve" text-anchor="middle" x="758.93" y="-1035.5" font-family="Helvetica,sans-Serif" font-size="13.00">Chain Network ESP32&#45;S3 (ESP&#45;NOW) &#45;&#45; every node originates its own reading, Gateway has no &quot;next&quot; and only sinks to Ethernet</text>
<!-- N0 -->
<g id="node1" class="node">
<title>N0</title>
<path fill="#2b6cb0" stroke="#1a365d" stroke-width="2" d="M1095.61,-553.06C1095.61,-553.06 962.44,-553.06 962.44,-553.06 956.44,-553.06 950.44,-547.06 950.44,-541.06 950.44,-541.06 950.44,-487.78 950.44,-487.78 950.44,-481.78 956.44,-475.78 962.44,-475.78 962.44,-475.78 1095.61,-475.78 1095.61,-475.78 1101.61,-475.78 1107.61,-481.78 1107.61,-487.78 1107.61,-487.78 1107.61,-541.06 1107.61,-541.06 1107.61,-547.06 1101.61,-553.06 1095.61,-553.06"/>
<text xml:space="preserve" text-anchor="middle" x="1029.03" y="-532.07" font-family="Helvetica,sans-Serif" font-size="13.00" fill="white">Node 0</text>
<text xml:space="preserve" text-anchor="middle" x="1029.03" y="-517.07" font-family="Helvetica,sans-Serif" font-size="13.00" fill="white">GATEWAY</text>
<text xml:space="preserve" text-anchor="middle" x="1029.03" y="-502.07" font-family="Helvetica,sans-Serif" font-size="13.00" fill="white">ESP32&#45;S3 + W5500</text>
<text xml:space="preserve" text-anchor="middle" x="1029.03" y="-487.07" font-family="Helvetica,sans-Serif" font-size="13.00" fill="white">(no &quot;next&quot; &#45;&#45; sink only)</text>
</g>
<!-- N1 -->
<g id="node2" class="node">
<title>N1</title>
<path fill="#2f855a" stroke="black" d="M751.24,-62.28C751.24,-62.28 604.57,-62.28 604.57,-62.28 598.57,-62.28 592.57,-56.28 592.57,-50.28 592.57,-50.28 592.57,-12 592.57,-12 592.57,-6 598.57,0 604.57,0 604.57,0 751.24,0 751.24,0 757.24,0 763.24,-6 763.24,-12 763.24,-12 763.24,-50.28 763.24,-50.28 763.24,-56.28 757.24,-62.28 751.24,-62.28"/>
<text xml:space="preserve" text-anchor="middle" x="677.9" y="-41.29" font-family="Helvetica,sans-Serif" font-size="13.00" fill="white">Node 1</text>
<text xml:space="preserve" text-anchor="middle" x="677.9" y="-26.29" font-family="Helvetica,sans-Serif" font-size="13.00" fill="white">RELAY</text>
<text xml:space="preserve" text-anchor="middle" x="677.9" y="-11.29" font-family="Helvetica,sans-Serif" font-size="13.00" fill="white">(originates own reading)</text>
</g>
<!-- N0&#45;&gt;N1 -->
<g id="edge9" class="edge">
<title>N0&#45;&gt;N1</title>
<path fill="none" stroke="#a0aec0" stroke-dasharray="1,5" d="M1000.3,-474.87C934.57,-384.41 773.82,-163.16 707.38,-71.71"/>
<polygon fill="#a0aec0" stroke="#a0aec0" points="710.29,-69.76 701.58,-63.73 704.63,-73.88 710.29,-69.76"/>
<text xml:space="preserve" text-anchor="middle" x="803.21" y="-289.84" font-family="Helvetica,sans-Serif" font-size="11.00" fill="#718096">HELLO only</text>
<text xml:space="preserve" text-anchor="middle" x="803.21" y="-276.34" font-family="Helvetica,sans-Serif" font-size="11.00" fill="#718096">(discovery, no DATA)</text>
</g>
<!-- NN -->
<g id="node5" class="node">
<title>NN</title>
<path fill="#2f855a" stroke="black" d="M751.24,-1028.85C751.24,-1028.85 604.57,-1028.85 604.57,-1028.85 598.57,-1028.85 592.57,-1022.85 592.57,-1016.85 592.57,-1016.85 592.57,-978.57 592.57,-978.57 592.57,-972.57 598.57,-966.57 604.57,-966.57 604.57,-966.57 751.24,-966.57 751.24,-966.57 757.24,-966.57 763.24,-972.57 763.24,-978.57 763.24,-978.57 763.24,-1016.85 763.24,-1016.85 763.24,-1022.85 757.24,-1028.85 751.24,-1028.85"/>
<text xml:space="preserve" text-anchor="middle" x="677.9" y="-1007.86" font-family="Helvetica,sans-Serif" font-size="13.00" fill="white">Node N&#45;1</text>
<text xml:space="preserve" text-anchor="middle" x="677.9" y="-992.86" font-family="Helvetica,sans-Serif" font-size="13.00" fill="white">RELAY</text>
<text xml:space="preserve" text-anchor="middle" x="677.9" y="-977.86" font-family="Helvetica,sans-Serif" font-size="13.00" fill="white">(originates own reading)</text>
</g>
<!-- N0&#45;&gt;NN -->
<g id="edge8" class="edge">
<title>N0&#45;&gt;NN</title>
<path fill="none" stroke="#a0aec0" stroke-dasharray="5,2" d="M995.56,-553.7C925.47,-643.86 765,-864.79 702.94,-956.65"/>
<polygon fill="#a0aec0" stroke="#a0aec0" points="700.06,-954.65 697.4,-964.91 705.88,-958.55 700.06,-954.65"/>
<text xml:space="preserve" text-anchor="middle" x="837.62" y="-758.22" font-family="Helvetica,sans-Serif" font-size="11.00" fill="#718096">ACK</text>
</g>
<!-- ETH -->
<g id="node6" class="node">
<title>ETH</title>
<path fill="#edf2f7" stroke="#4a5568" d="M1517.87,-548.19C1517.87,-552.33 1490.21,-555.69 1456.16,-555.69 1422.11,-555.69 1394.45,-552.33 1394.45,-548.19 1394.45,-548.19 1394.45,-480.66 1394.45,-480.66 1394.45,-476.52 1422.11,-473.15 1456.16,-473.15 1490.21,-473.15 1517.87,-476.52 1517.87,-480.66 1517.87,-480.66 1517.87,-548.19 1517.87,-548.19"/>
<path fill="none" stroke="#4a5568" d="M1517.87,-548.19C1517.87,-544.05 1490.21,-540.69 1456.16,-540.69 1422.11,-540.69 1394.45,-544.05 1394.45,-548.19"/>
<text xml:space="preserve" text-anchor="middle" x="1456.16" y="-524.4" font-family="Helvetica,sans-Serif" font-size="12.00">RPi4 Backend</text>
<text xml:space="preserve" text-anchor="middle" x="1456.16" y="-510.15" font-family="Helvetica,sans-Serif" font-size="12.00">status+plate :5000</text>
<text xml:space="preserve" text-anchor="middle" x="1456.16" y="-495.9" font-family="Helvetica,sans-Serif" font-size="12.00">video :5300</text>
</g>
<!-- N0&#45;&gt;ETH -->
<g id="edge10" class="edge">
<title>N0&#45;&gt;ETH</title>
<path fill="none" stroke="#c05621" stroke-width="2.4" d="M1108.37,-514.42C1186.32,-514.42 1304.39,-514.42 1380.9,-514.42"/>
<polygon fill="#c05621" stroke="#c05621" stroke-width="2.4" points="1380.58,-517.92 1390.58,-514.42 1380.58,-510.92 1380.58,-517.92"/>
<text xml:space="preserve" text-anchor="middle" x="1185.76" y="-517.47" font-family="Helvetica,sans-Serif" font-size="11.00" fill="#c05621">RJ45 (Ethernet, W5500)</text>
</g>
<!-- N2 -->
<g id="node3" class="node">
<title>N2</title>
<path fill="#2f855a" stroke="black" d="M183.1,-246.88C183.1,-246.88 36.43,-246.88 36.43,-246.88 30.43,-246.88 24.43,-240.88 24.43,-234.88 24.43,-234.88 24.43,-196.6 24.43,-196.6 24.43,-190.6 30.43,-184.6 36.43,-184.6 36.43,-184.6 183.1,-184.6 183.1,-184.6 189.1,-184.6 195.1,-190.6 195.1,-196.6 195.1,-196.6 195.1,-234.88 195.1,-234.88 195.1,-240.88 189.1,-246.88 183.1,-246.88"/>
<text xml:space="preserve" text-anchor="middle" x="109.77" y="-225.89" font-family="Helvetica,sans-Serif" font-size="13.00" fill="white">Node 2</text>
<text xml:space="preserve" text-anchor="middle" x="109.77" y="-210.89" font-family="Helvetica,sans-Serif" font-size="13.00" fill="white">RELAY</text>
<text xml:space="preserve" text-anchor="middle" x="109.77" y="-195.89" font-family="Helvetica,sans-Serif" font-size="13.00" fill="white">(originates own reading)</text>
</g>
<!-- N1&#45;&gt;N2 -->
<g id="edge1" class="edge">
<title>N1&#45;&gt;N2</title>
<path fill="none" stroke="#1a365d" stroke-width="2.2" d="M592.23,-53.76C487.68,-85.31 311.51,-142.47 203.44,-179.84"/>
<polygon fill="#1a365d" stroke="#1a365d" stroke-width="2.2" points="202.38,-176.5 194.08,-183.09 204.68,-183.12 202.38,-176.5"/>
<text xml:space="preserve" text-anchor="middle" x="344.59" y="-106.35" font-family="Helvetica,sans-Serif" font-size="11.00">DATA (own + relayed)</text>
</g>
<!-- N2&#45;&gt;N1 -->
<g id="edge5" class="edge">
<title>N2&#45;&gt;N1</title>
<path fill="none" stroke="#a0aec0" stroke-dasharray="5,2" d="M195.44,-193.12C300.53,-161.41 477.96,-103.83 585.87,-66.47"/>
<polygon fill="#a0aec0" stroke="#a0aec0" points="587.01,-69.78 595.31,-63.19 584.71,-63.17 587.01,-69.78"/>
<text xml:space="preserve" text-anchor="middle" x="379.03" y="-132.85" font-family="Helvetica,sans-Serif" font-size="11.00" fill="#718096">ACK</text>
</g>
<!-- DOTS -->
<g id="node4" class="node">
<title>DOTS</title>
<path fill="white" stroke="none" d="M124.77,-833.38C124.77,-833.38 94.77,-833.38 94.77,-833.38 88.77,-833.38 82.77,-827.38 82.77,-821.38 82.77,-821.38 82.77,-804.85 82.77,-804.85 82.77,-798.85 88.77,-792.85 94.77,-792.85 94.77,-792.85 124.77,-792.85 124.77,-792.85 130.77,-792.85 136.77,-798.85 136.77,-804.85 136.77,-804.85 136.77,-821.38 136.77,-821.38 136.77,-827.38 130.77,-833.38 124.77,-833.38"/>
<text xml:space="preserve" text-anchor="middle" x="109.77" y="-805.74" font-family="Helvetica,sans-Serif" font-size="20.00" fill="#4a5568">...</text>
</g>
<!-- N2&#45;&gt;DOTS -->
<g id="edge2" class="edge">
<title>N2&#45;&gt;DOTS</title>
<path fill="none" stroke="#1a365d" stroke-width="2.2" d="M106.54,-247.01C101.87,-349.49 101.84,-674.6 106.46,-779.87"/>
<polygon fill="#1a365d" stroke="#1a365d" stroke-width="2.2" points="102.95,-779.81 106.95,-789.62 109.94,-779.46 102.95,-779.81"/>
<text xml:space="preserve" text-anchor="middle" x="53.25" y="-516.49" font-family="Helvetica,sans-Serif" font-size="11.00">DATA (own + relayed)</text>
</g>
<!-- DOTS&#45;&gt;N2 -->
<g id="edge6" class="edge">
<title>DOTS&#45;&gt;N2</title>
<path fill="none" stroke="#a0aec0" stroke-dasharray="5,2" d="M112.42,-792.89C117.51,-707.77 117.86,-377.47 113.47,-258.64"/>
<polygon fill="#a0aec0" stroke="#a0aec0" points="116.97,-258.52 113.06,-248.67 109.97,-258.81 116.97,-258.52"/>
<text xml:space="preserve" text-anchor="middle" x="124.57" y="-528.81" font-family="Helvetica,sans-Serif" font-size="11.00" fill="#718096">ACK</text>
</g>
<!-- DOTS&#45;&gt;NN -->
<g id="edge3" class="edge">
<title>DOTS&#45;&gt;NN</title>
<path fill="none" stroke="#1a365d" stroke-width="2.2" d="M136.59,-825.11C214.89,-854.74 445.98,-930.56 579.56,-971.25"/>
<polygon fill="#1a365d" stroke="#1a365d" stroke-width="2.2" points="578.4,-974.55 588.98,-974.1 580.43,-967.85 578.4,-974.55"/>
<text xml:space="preserve" text-anchor="middle" x="304.82" y="-901.23" font-family="Helvetica,sans-Serif" font-size="11.00">DATA (own + relayed)</text>
</g>
<!-- NN&#45;&gt;N0 -->
<g id="edge4" class="edge">
<title>NN&#45;&gt;N0</title>
<path fill="none" stroke="#1a365d" stroke-width="2.2" d="M705.27,-966.25C769.54,-884.47 929.39,-664.79 997.55,-564.97"/>
<polygon fill="#1a365d" stroke="#1a365d" stroke-width="2.2" points="1000.42,-566.98 1003.14,-556.74 994.63,-563.04 1000.42,-566.98"/>
<text xml:space="preserve" text-anchor="middle" x="904.66" y="-768.66" font-family="Helvetica,sans-Serif" font-size="11.00">DATA (own + relayed)</text>
</g>
<!-- NN&#45;&gt;DOTS -->
<g id="edge7" class="edge">
<title>NN&#45;&gt;DOTS</title>
<path fill="none" stroke="#a0aec0" stroke-dasharray="5,2" d="M596.51,-966.07C471.86,-922.61 238.57,-847.3 147.52,-821.66"/>
<polygon fill="#a0aec0" stroke="#a0aec0" points="148.67,-818.35 138.1,-819.05 146.8,-825.09 148.67,-818.35"/>
<text xml:space="preserve" text-anchor="middle" x="360.39" y="-883.42" font-family="Helvetica,sans-Serif" font-size="11.00" fill="#718096">ACK</text>
</g>
</g>
</svg>
